# xmcd CD database file
#
# Track frame offsets:
#	150
#	14992
#	30042
#	46830
#	63732
#	82927
#	91870
#	111945
#	128720
#	145672
#	165245
#
# Disc length: 2443 seconds
#
# Revision: 0
# Processed by: cddbd v1.4PL0 Copyright (c) Steve Scherf et al.
# Submitted via: CDex 1.40Release
#
DISCID=8009890b
DTITLE=Various Artist - A Bluebird Cafe Christmas
DYEAR=1992
DGENRE=Country
TTITLE0=Jay Patten/Sleigh Ride
TTITLE1=Crystal Gayle/The Christmas Song
TTITLE2=Mark Germino/Do You Hear What I Hear?
TTITLE3=Pebble Daniel/Please Come Home For Christmas
TTITLE4=Bob DiPiero/Silent Night
TTITLE5=Vickie Carrico/O Come All Ye Faithful
TTITLE6=Russ Taff/I'll Be Home For Christmas
TTITLE7=Jonell Mosser/Christmas Must Be Tonight
TTITLE8=Gary Nicholson/Santa Claus Wants Some Loving
TTITLE9=Jimmy Hall/Santa Claus Is Coming To Town
TTITLE10=Roberto Blanco/White Christmas
EXTD=YEAR: 1992 ID3G: 2
EXTT0=
EXTT1=
EXTT2=
EXTT3=
EXTT4=
EXTT5=
EXTT6=
EXTT7=
EXTT8=
EXTT9=
EXTT10=
PLAYORDER=
